<?xml version="1.0" encoding="UTF-8" standalone="no"?>
<!-- Created with Inkscape (http://www.inkscape.org/) -->

<svg
   version="1.1"
   id="svg1"
   width="889.85919"
   height="540.7666"
   viewBox="0 0 889.85919 540.7666"
   sodipodi:docname="snail2.svg"
   inkscape:version="1.3 (0e150ed6c4, 2023-07-21)"
   xmlns:inkscape="http://www.inkscape.org/namespaces/inkscape"
   xmlns:sodipodi="http://sodipodi.sourceforge.net/DTD/sodipodi-0.dtd"
   xmlns="http://www.w3.org/2000/svg"
   xmlns:svg="http://www.w3.org/2000/svg">
  <defs
     id="defs1" />
  <sodipodi:namedview
     id="namedview1"
     pagecolor="#ffffff"
     bordercolor="#000000"
     borderopacity="0.25"
     inkscape:showpageshadow="2"
     inkscape:pageopacity="0.0"
     inkscape:pagecheckerboard="0"
     inkscape:deskcolor="#d1d1d1"
     showgrid="false"
     inkscape:zoom="1.170706"
     inkscape:cx="453.14536"
     inkscape:cy="267.78713"
     inkscape:window-width="1920"
     inkscape:window-height="1011"
     inkscape:window-x="0"
     inkscape:window-y="0"
     inkscape:window-maximized="1"
     inkscape:current-layer="layer2" />
  <g
     inkscape:groupmode="layer"
     id="layer2"
     inkscape:label="Layer 1">
    <path
       style="fill:#000000"
       d="m 501.5,568.97399 c -38.55317,-1.96635 -80.70946,-4.04738 -101.5,-5.01053 -12.925,-0.59877 -24.175,-1.2695 -25,-1.49051 -0.825,-0.22102 -10.95,-1.10994 -22.5,-1.97538 -11.55,-0.86544 -27.73702,-2.2351 -35.97116,-3.04368 -8.23413,-0.80858 -25.33413,-1.7055 -38,-1.99315 -26.48772,-0.60156 -49.57808,-1.74688 -78.02884,-3.87037 -34.16743,-2.55018 -77.35631,-3.76795 -93.5,-2.63639 -20.954134,1.46875 -43.823064,1.27515 -60.74492,-0.51426 -17.257504,-1.8249 -20.518103,-2.68735 -23.239443,-6.14697 -2.292069,-2.91389 -2.805672,-11.88648 -0.893451,-15.60849 4.197644,-8.17042 14.4916,-13.17473 34.301205,-16.67519 11.871153,-2.09769 24.987135,-6.15837 33.076609,-10.24044 5.269365,-2.65899 25.18004,-9.28572 37,-12.31443 3.85,-0.98651 7.19576,-1.95054 7.43502,-2.14229 0.23927,-0.19174 -1.14186,-2.02786 -3.06917,-4.08027 -11.86968,-12.6401 -18.55502,-23.66957 -24.78026,-40.88247 C 99.07796,420.97296 97.47891,414.2656 94.501318,391.7579 91.976116,372.66984 91.405041,370.3932 87.789324,365 85.447487,361.50692 81.377056,347.93676 79.990505,339 78.041762,326.43974 77.791417,292.23083 79.547291,278.43607 81.168297,265.70088 82.260652,261.05179 86.427382,249.15421 87.842322,245.11403 89,240.78163 89,239.52666 c 0,-1.25498 0.632367,-2.80659 1.405261,-3.44803 0.772893,-0.64145 2.87807,-4.85905 4.67817,-9.37245 4.052797,-10.16159 13.148579,-26.42057 19.498179,-34.85355 5.95676,-7.91125 14.22615,-15.07787 22.8885,-19.83621 5.41375,-2.97384 7.20388,-4.6201 9.61549,-8.84266 8.55961,-14.98732 43.67915,-57.31347 59.07338,-71.195364 17.16291,-15.476837 35.33067,-28.687647 48.61748,-35.35255 C 264.47134,51.762719 289.32367,41.587075 297.5,39.132933 314.15936,34.132593 343.68179,29 355.78414,29 c 15.37901,0 43.87648,3.110185 60.71586,6.626467 27.08715,5.65615 46.19912,13.461454 67.6998,27.648509 15.48396,10.216976 20.38522,14.34736 41.13046,34.661429 14.66146,14.356735 44.2813,51.119865 54.83844,68.063595 3.59824,5.775 8.76277,14.1 11.47673,18.5 2.71396,4.4 8.96171,16.55 13.88389,27 4.92217,10.45 13.07465,27.36956 18.11661,37.59903 5.04196,10.22946 11.73326,25.07946 14.86956,33 3.1363,7.92053 7.7352,18.45097 10.21978,23.40097 4.00771,7.98452 4.57491,9.95339 5.02696,17.44974 0.65925,10.93232 1.4239,11.61944 13.69179,12.30348 6.69516,0.37331 11.96013,1.45541 20.25966,4.16393 21.15373,6.90343 36.44417,10.57956 44.01327,10.58167 5.4667,0.002 5.88114,-0.66051 12.88969,-20.5902 12.44452,-35.38753 18.94228,-63.29661 30.59443,-131.40862 5.31934,-31.09395 5.23762,-30.23492 3.39155,-35.65284 C 777.72118,159.76027 777,154.98927 777,151.74494 c 0,-5.12553 0.3666,-6.26538 2.79659,-8.69538 5.3862,-5.3862 18.58488,-6.20567 23.6936,-1.47107 2.18856,2.02829 2.50981,3.16612 2.50981,8.88951 0,6.36832 -1.78173,14.532 -3.17163,14.532 -0.37657,0 -1.60757,2.46666 -2.73555,5.48147 -1.44893,3.87261 -2.34556,9.8162 -3.05484,20.25 C 796.4858,198.85416 794.69571,215.4 793.06,227.5 c -6.42122,47.50025 -10.93908,120.95425 -7.64219,124.25114 0.86439,0.8644 10.48351,-8.69259 17.62102,-17.50722 15.41166,-19.03297 37.46701,-57.56141 51.94576,-90.74392 12.22799,-28.02421 23.83026,-63.17935 24.58726,-74.5 0.7236,-10.82101 2.31842,-19.90289 3.92584,-22.35613 C 885.60603,143.42613 889.8278,142 897.24493,142 c 7.32637,0 11.31,2.12141 12.87218,6.85483 1.42761,4.32571 0.51163,13.79294 -1.55551,16.0771 -0.85888,0.94905 -1.5616,2.31352 -1.5616,3.03214 0,0.71862 -1.08686,2.31386 -2.41524,3.54496 -3.96008,3.67008 -6.1133,9.20142 -9.53376,24.49097 -1.92229,8.5927 -6.51518,23.66649 -11.27367,37 -4.41641,12.375 -10.2617,29.475 -12.98952,38 -2.72782,8.525 -8.70785,27.2 -13.28894,41.5 -11.55426,36.06691 -13.91779,46.10558 -17.02419,72.30745 l -1.69624,14.30746 2.58511,5.76039 C 845.50585,414.10556 852,444.07056 852,453.95346 c 0,5.63292 1.42803,8.64479 6.77273,14.28446 3.24712,3.42632 7.2913,6.2052 12.91623,8.87512 4.50392,2.13783 8.83074,3.88696 9.61514,3.88696 0.7844,0 2.61187,0.93266 4.06104,2.07258 5.11903,4.02662 2.16055,14.92742 -4.0513,14.92742 -1.39756,0 -9.23062,-1.65927 -17.40681,-3.68728 -8.1762,-2.028 -15.11336,-3.43973 -15.41591,-3.13717 -1.00722,1.00721 -0.855,6.21079 0.52888,18.07965 l 1.37063,11.75519 -3.44532,6.61129 c -3.52985,6.7735 -6.86625,9.88629 -17.44531,16.27609 -3.81162,2.30223 -8.92167,3.83711 -21.5,6.45782 -19.21633,4.00376 -31.49092,5.32218 -57,6.12239 -10.175,0.31919 -23,1.0175 -28.5,1.55181 -28.44902,2.76372 -41.97777,4.21756 -51.42407,5.52616 -5.73324,0.79423 -15.40824,1.45912 -21.5,1.47753 -6.09176,0.0184 -21.65093,0.70717 -34.57593,1.53056 -51.56334,3.28488 -83.18245,3.95625 -113.5,2.40995 z"
       id="path1"
       transform="translate(-20.948528,-29)" />
    <path
       id="path2"
       style="fill:#d4aa00"
       d="M 579.05595 330.10938 C 573.79082 330.11591 572.30146 330.78856 566.554 333.44336 C 562.31887 335.39961 558.27627 337 557.56962 337 C 555.90875 337 543.10358 343.6457 540.49931 345.85938 C 539.39931 346.7944 536.24931 349.08683 533.49931 350.95312 C 530.74931 352.81942 525.99184 356.69855 522.92704 359.57422 C 517.58278 364.58866 517.07107 364.82815 510.42704 365.43359 C 500.94031 366.29807 491.73594 367.99408 490.35087 369.13281 C 489.71834 369.65283 482.96833 370.34489 475.35087 370.66992 C 464.73204 371.123 459.77882 371.8141 454.12236 373.63086 C 450.06465 374.93412 445.85925 376 444.77665 376 C 443.69406 376 439.42542 377.60609 435.29032 379.56836 C 429.78227 382.18216 425.87516 383.29484 420.679 383.73047 L 413.58525 384.32422 L 404.04228 393.67188 C 398.79364 398.81295 393.80202 403.2416 392.94853 403.51367 C 392.09503 403.78575 390.29503 405.80691 388.94853 408.00391 C 387.60202 410.2009 384.808 414.36196 382.73954 417.25 C 380.67109 420.13803 378.06685 424.525 376.95243 427 C 375.83802 429.475 374.26682 432.9625 373.4622 434.75 C 372.65758 436.5375 371.35888 439.4625 370.57548 441.25 C 369.79208 443.0375 367.99208 447.09981 366.57548 450.27734 C 365.15888 453.45487 363.99931 456.31049 363.99931 456.62305 C 363.99931 456.93562 363.16558 458.3858 362.14579 459.8457 C 361.12599 461.3056 359.96547 463.85 359.56572 465.5 C 359.16597 467.15 357.52468 471.19257 355.91923 474.48438 C 354.31377 477.77618 352.99931 480.8429 352.99931 481.29883 C 352.99931 484.01148 347.48092 493.20292 343.39384 497.29688 C 338.3243 502.37496 335.83951 503.76454 326.99931 506.47266 C 323.97431 507.39935 319.61951 509.24865 317.32157 510.58008 C 315.02364 511.9115 312.32363 513.00567 311.32157 513.01367 C 310.31952 513.02167 307.49317 513.728 305.04032 514.58203 C 288.68064 520.27813 276.78728 521.97698 248.35478 522.67969 C 226.56878 523.21814 222.67074 523.0854 219.17704 521.6875 C 216.95925 520.80011 211.27806 519.59314 206.55204 519.00586 C 201.82602 518.41859 196.95619 517.54663 195.72978 517.06836 C 194.50338 516.59009 188.0993 514.54217 181.49931 512.51758 C 165.33059 507.55772 144.99931 498.84279 144.99931 496.87109 C 144.99931 496.39209 144.37908 496 143.6204 496 C 142.86172 496 140.47637 494.28837 138.31962 492.19531 L 134.39775 488.38867 L 126.07939 490.65234 C 113.36843 494.11003 99.05343 499.00106 93.499309 501.78516 C 85.352423 505.86892 72.249392 509.92001 60.423137 512.00977 C 39.269308 515.74776 27.095976 522.15994 23.913372 531.24414 C 22.728248 534.62688 22.796223 535.25078 24.61259 537.68359 C 28.924461 543.45888 30.928491 544.18374 48.186809 546.2207 C 62.322474 547.88912 67.569918 548.03559 87.499309 547.32227 C 128.21673 545.86488 176.00558 547.03719 217.99931 550.52344 C 227.6243 551.32249 251.24933 552.42653 270.49931 552.97461 C 289.74929 553.52269 312.24932 554.63495 320.49931 555.44727 C 328.7493 556.25958 344.94932 557.63261 356.49931 558.49805 C 368.0493 559.36349 378.17431 560.25164 378.99931 560.47266 C 379.82431 560.69367 391.07432 561.36412 403.99931 561.96289 C 424.78983 562.92604 466.94618 565.00826 505.49931 566.97461 C 525.29772 567.9844 544.3995 567.98494 566.99931 566.97656 C 578.2743 566.47343 598.07432 565.38785 610.99931 564.56445 C 623.9243 563.74106 639.48373 563.05161 645.57548 563.0332 C 651.66724 563.0148 661.34225 562.35087 667.07548 561.55664 C 676.52177 560.24804 690.05032 558.79301 718.49931 556.0293 C 723.9993 555.49499 736.82432 554.79771 746.99931 554.47852 C 772.50836 553.67831 784.783 552.35922 803.99931 548.35547 C 816.97024 545.65296 821.63543 544.23097 825.81181 541.70898 C 836.17102 535.45336 840.32163 531.64514 844.13407 524.89258 L 847.85478 518.30469 L 846.30009 506.73438 C 844.62975 494.29409 844.99019 489.4627 847.81572 486.42578 C 853.22592 480.61084 855.014 472.23135 852.0579 466.53906 C 850.92127 464.35034 849.99931 460.66583 849.99931 458.30664 C 849.99931 448.18486 843.53913 418.04462 839.45829 409.12891 C 837.84631 405.60709 836.99931 401.95884 836.99931 398.5332 C 836.99931 394.82606 836.49114 392.85106 835.24931 391.73047 C 834.28681 390.86194 828.5493 388.50466 822.49931 386.49219 C 816.44932 384.47971 811.07259 382.42027 810.55009 381.91602 C 810.02759 381.41178 808.95309 381 808.16142 381 C 807.36975 381 804.53396 379.65468 801.86064 378.00977 L 796.99931 375.01758 L 796.99931 384.32227 C 796.99931 391.57868 796.55934 394.5348 794.99931 397.76367 C 793.89931 400.04041 792.99931 402.3356 792.99931 402.86328 C 792.99931 403.39096 791.61534 404.98626 789.92314 406.41016 L 786.84697 409 L 764.67314 408.94336 C 738.647 408.87776 736.41005 408.34028 730.62431 400.74219 C 728.63133 398.12496 726.99931 395.66135 726.99931 395.26758 C 726.99931 394.87381 725.45475 393.17668 723.56572 391.49609 C 716.33727 385.06526 713.99931 381.15796 713.99931 375.50391 C 713.99931 370.84242 714.42549 369.79828 717.97001 365.77148 C 720.15379 363.29059 724.2038 359.53337 726.97001 357.42383 C 729.73623 355.31428 731.99931 353.23191 731.99931 352.79492 C 731.99931 352.35794 730.08681 351.9987 727.74931 351.99805 C 720.21494 351.99605 705.23414 348.40818 683.72001 341.45312 C 671.80623 337.60166 659.50222 336.07217 640.04423 336.02344 C 631.28738 336.00154 620.07459 334.69594 603.99931 331.82617 C 600.42431 331.18796 592.2688 330.4898 585.87626 330.27539 C 582.98451 330.17841 580.81099 330.1072 579.05595 330.10938 z M 723.82548 469.15234 C 725.26453 469.09963 726.88433 469.50684 728.21025 470.43555 C 729.43934 471.29644 731.19059 472 732.10087 472 C 733.01115 472 734.30153 472.65937 734.97001 473.46484 C 736.43153 475.22587 757.35158 487 759.01884 487 C 759.66371 487 761.49761 487.93091 763.09501 489.06836 C 765.32148 490.65375 765.99931 491.92669 765.99931 494.52148 C 765.99931 499.09544 764.28267 502.55125 761.34306 503.89062 C 758.31368 505.2709 757.47872 505.22271 752.49931 503.37891 C 750.29931 502.56428 744.33399 500.80688 739.2415 499.47461 C 727.15714 496.31317 715.42237 490.90974 714.52861 488.09375 C 714.08092 486.6832 714.86531 483.85145 716.84306 479.73047 C 718.48757 476.30384 719.98689 472.6 720.17509 471.5 C 720.42369 470.047 721.97528 469.22012 723.82548 469.15234 z "
       transform="translate(-20.948528,-29)" />
    <g
       id="layer4"
       inkscape:label="01"
       style="display:inline;fill:#aa8800">
      <path
         style="fill:#aa8800"
         d="m 753.05678,493.32794 c 0.64397,-1.95122 0.7778,-3.88806 0.30116,-4.35808 -0.47187,-0.46531 -4.1555,-2.56138 -8.18585,-4.65794 -4.03034,-2.09655 -9.65534,-5.02323 -12.5,-6.50372 -7.66674,-3.99012 -9.17522,-3.72224 -12.15524,2.15856 C 719.13258,482.69847 718,485.6045 718,486.4246 c 0,2.21205 8.03445,6.51468 14.14937,7.5773 2.94285,0.5114 8.05063,1.77805 11.35063,2.8148 6.78514,2.13165 7.82746,1.75114 9.55678,-3.48876 z"
         id="path5"
         transform="translate(-20.948528,-29)" />
      <path
         style="fill:#aa8800"
         d="m 873.87832,490.75 c 2.75012,-7.46572 2.88983,-7.2218 -6.85875,-11.97482 l -8.98002,-4.37831 -1.42449,3.05157 c -4.00228,8.57371 -4.59011,10.6239 -3.19914,11.15767 2.3112,0.88689 15.99026,4.16821 17.85883,4.28395 0.99217,0.0615 2.14022,-0.88221 2.60357,-2.14006 z"
         id="path8"
         transform="translate(-20.948528,-29)" />
      <path
         style="fill:#aa8800"
         d="m 785.48789,405.0046 c 1.82831,-0.69512 3.38066,-2.71969 5.14596,-6.71134 2.29857,-5.19748 2.49785,-6.71722 2.19701,-16.7546 -0.27924,-9.31637 -0.66251,-11.50673 -2.45652,-14.03866 -1.16912,-1.65 -2.42022,-4.36165 -2.78023,-6.02589 -0.37622,-1.73913 -1.59105,-3.44013 -2.85675,-4 -2.08075,-0.9204 -2.22253,-1.70512 -2.57125,-14.23115 -0.60953,-21.89497 3.93166,-83.03546 8.89389,-119.74296 1.63571,-12.1 3.42476,-28.63027 3.97566,-36.73394 0.55089,-8.10367 1.38867,-15.75367 1.86173,-17 0.84816,-2.23462 0.75184,-2.26606 -6.94267,-2.26606 h -7.80275 l -0.43384,5.5 c -0.51177,6.48806 -7.00348,44.58294 -12.18424,71.5 -7.88844,40.98505 -12.28966,58.40977 -21.21712,84 -7.88481,22.60154 -8.28199,23.5 -10.38862,23.5 -1.06048,0 -1.92815,0.42334 -1.92815,0.94076 0,0.51742 -3.14911,3.53144 -6.99802,6.69782 C 720.98484,366.23403 717,371.64759 717,375.94376 c 0,3.07707 3.37244,7.70289 9.75,13.37362 1.7875,1.58939 3.25,3.31218 3.25,3.82842 0,0.51624 0.4549,1.48212 1.01088,2.14641 0.55599,0.66428 1.94202,2.44958 3.08008,3.96732 1.13805,1.51774 2.53347,2.47259 3.10092,2.12188 0.56745,-0.3507 1.41232,-0.0218 1.87748,0.73082 0.46517,0.75266 3.00236,1.88185 5.6382,2.50932 6.00658,1.42989 37.25494,1.72341 40.78033,0.38305 z"
         id="path10"
         transform="translate(-20.948528,-29)" />
      <path
         style="fill:#aa8800"
         d="m 838.43525,381.25 c 2.27636,-22.99399 5.94272,-38.01036 20.08192,-82.25 15.43693,-48.30005 15.16344,-47.47827 23.46251,-70.5 3.96537,-11 8.91295,-27.2 10.99463,-36 2.08167,-8.8 4.08998,-16.72963 4.46291,-17.62139 0.56099,-1.34147 -0.23826,-1.72114 -4.62958,-2.19918 -2.9192,-0.31779 -6.48119,-0.8659 -7.91553,-1.21803 -2.41421,-0.59267 -2.6549,-0.34628 -3.24077,3.31756 -1.14311,7.14858 -9.7331,35.458 -14.62967,48.21396 C 847.54658,273.72707 819.3058,323.88094 796.97778,347.38654 793.14,351.42672 790,355.49542 790,356.42809 c 0,0.93267 1.16146,4.15089 2.58102,7.1516 2.02434,4.27909 3.84583,6.31474 8.44513,9.43807 3.22526,2.19023 6.32676,3.98224 6.89223,3.98224 0.56546,0 3.17766,0.96585 5.80487,2.14633 6.4873,2.91492 7.87734,3.43281 14.55851,5.42416 3.17997,0.9478 6.01903,2.10717 6.30902,2.57639 0.28999,0.46922 1.12327,0.85312 1.85174,0.85312 0.9025,0 1.53739,-2.15056 1.99273,-6.75 z"
         id="path12"
         transform="translate(-20.948528,-29)" />
    </g>
    <g
       id="layer5"
       inkscape:label="02"
       style="display:inline;fill:#806600">
      <path
         style="fill:#806600"
         d="m 761,499 c 1.1,-1.1 2,-2.52707 2,-3.17126 C 763,494.24672 759.97653,491 758.5033,491 757.42312,491 755,497.13233 755,499.86602 c 0,1.84727 3.84112,1.29286 6,-0.86602 z"
         id="path4"
         transform="translate(-20.948528,-29)" />
      <path
         style="fill:#806600"
         d="m 881.4552,494.37882 c 0.89032,-0.34165 2.27334,-1.88697 3.07336,-3.43405 1.37489,-2.65874 1.31068,-2.92607 -1.17184,-4.87882 C 881.91218,484.92968 880.4343,484 880.07255,484 879.44324,484 877,491.96324 877,494.01435 c 0,1.11799 2.05373,1.286 4.4552,0.36447 z"
         id="path7"
         transform="translate(-20.948528,-29)" />
      <path
         style="fill:#806600"
         d="M 798.79769,162.1958 C 801.51626,160.43486 804,154.96836 804,150.74595 804,146.70603 798.08474,141 793.89668,141 c -4.39011,0 -9.1431,2.31571 -12.19337,5.94075 -3.1353,3.72609 -3.26716,5.04816 -1.1293,11.32245 1.15019,3.3756 2.29457,4.87557 4.25,5.57056 3.37941,1.20109 10.96307,0.31215 13.97368,-1.63796 z"
         id="path16"
         transform="translate(-20.948528,-29)" />
      <path
         style="fill:#806600"
         d="m 904.11054,164.25 c 4.20725,-5.64939 5.10624,-8.54625 3.75729,-12.10732 -2.47196,-6.52569 -8.58139,-9.38241 -15.31369,-7.16055 -5.12845,1.69254 -8.55951,6.66979 -9.2571,13.42875 -0.8471,8.2076 1.609,10.40975 11.73951,10.52573 5.46707,0.0626 5.58093,0.004 9.07399,-4.68661 z"
         id="path15"
         transform="translate(-20.948528,-29)" />
    </g>
    <g
       id="layer1"
       inkscape:label="03"
       transform="translate(-20.948528,-29)"
       style="display:inline;fill:#803300">
      <path
         style="fill:#803300"
         d="m 100.89,298.48041 c 4.73836,-4.28082 5.49915,-8.32851 3.19158,-16.98041 -1.4849,-5.56743 -1.82337,-6.02181 -4.694845,-6.30246 -3.710138,-0.36263 -9.518529,2.81169 -11.326561,6.19002 -1.927259,3.60112 -0.208896,15.49395 2.725384,18.86244 2.352193,2.70027 5.831252,2.09098 10.104442,-1.76959 z"
         id="path14" />
      <path
         style="fill:#803300"
         d="m 115.9967,333.00169 c 4.91899,-2.50949 9.13344,-9.44291 10.31305,-16.96659 0.47731,-3.0443 1.09225,-12.2851 1.36653,-20.5351 0.53971,-16.23351 -0.35907,-23.04263 -4.00581,-30.348 -2.0288,-4.06421 -3.28311,-5.35948 -10.40401,-10.74379 -6.78472,-5.13011 -14.460033,-3.37271 -18.938123,4.33624 -1.519363,2.61555 -4.012714,6.10555 -5.54078,7.75555 -1.528066,1.65 -2.780384,3.70149 -2.78293,4.55887 -0.0025,0.85738 -0.665315,2.43238 -1.472824,3.5 -0.807508,1.06762 -1.482508,3.28116 -1.5,4.91897 L 83,282.45569 86.089998,278.70698 C 89.989645,273.97604 93.788972,272 98.985523,272 c 6.309967,0 8.904357,2.23438 9.103077,7.83991 0.54412,15.34796 0.66338,14.82794 -4.63368,20.20586 C 99.125123,304.44167 98.096368,305 94.326547,305 c -5.403017,0 -7.583232,-2.23305 -9.34326,-9.56967 -0.728792,-3.03794 -1.669294,-5.73627 -2.090006,-5.99629 -1.317234,-0.81409 -2.093597,7.92528 -0.96662,10.88106 C 82.516998,301.8634 83,304.37246 83,305.89077 c 0,3.63709 4.601655,16.70915 7.239363,20.56507 C 95.62369,334.3269 96.765,335 104.72693,335 c 5.37724,0 8.40516,-0.5369 11.26977,-1.99831 z"
         id="path13" />
      <path
         style="fill:#803300"
         d="m 135.4398,396.92005 c 9.44333,-1.68283 18.60356,-4.87452 22.3108,-7.77372 2.30951,-1.80612 5.29873,-6.45632 9.4149,-14.64633 9.11254,-18.13139 9.65426,-19.14558 12.34104,-23.10477 2.25152,-3.3178 2.49346,-4.65598 2.49346,-13.79138 0,-5.56438 -0.46157,-11.68908 -1.02571,-13.61045 -2.06016,-7.01655 -3.18451,-15.63549 -6.39124,-48.9934 -0.76665,-7.975 -2.07528,-16.525 -2.90808,-19 C 168.84571,247.59172 167,241.12852 167,239.62949 c 0,-0.82209 -0.9,-1.78036 -2,-2.12949 -1.1,-0.34913 -2,-1.05445 -2,-1.56739 0,-0.51293 -0.5625,-0.93312 -1.25,-0.93373 -1.82772,-0.002 -6.40529,-4.77333 -10.07178,-10.49888 l -3.20187,-5 -11.48818,-0.29363 c -13.71975,-0.35068 -24.82992,2.22948 -30.02259,6.97225 -1.69896,1.55176 -3.45888,2.82138 -3.91094,2.82138 -1.25881,0 -7.734411,7.48007 -9.601797,11.09119 -1.433969,2.77299 -5.637515,14.30428 -8.442174,23.15881 -1.320975,4.17043 0.247055,3.29925 3.539918,-1.96673 6.722865,-10.75128 13.250833,-15.60604 18.046533,-13.42097 1.37334,0.62573 3.29737,1.1377 4.27562,1.1377 0.97825,0 2.79975,1.08693 4.04778,2.41539 1.24802,1.32847 3.31206,2.67715 4.58673,2.99707 3.15842,0.79272 8.68112,9.78489 10.18753,16.58754 0.68423,3.08984 1.23707,13.03194 1.26159,22.68795 0.059,23.25618 -2.15636,32.9108 -8.93852,38.95373 -5.13443,4.5748 -7.69588,5.36009 -17.38216,5.32901 -8.556396,-0.0275 -9.32592,-0.20393 -12.13569,-2.78296 -3.443411,-3.16065 -7.783965,-10.80461 -10.465477,-18.43031 L 80.185798,311.5 80.637519,319 c 1.234449,20.49577 4.941033,35.72125 10.833348,44.5 1.845806,2.75 3.672385,6.125 4.059066,7.5 1.800523,6.40249 7.576377,16.72741 9.966737,17.81653 1.38364,0.63043 4.12676,2.61711 6.09583,4.41485 1.96906,1.79774 4.32877,3.57449 5.24381,3.94833 2.59422,1.05989 11.92996,0.92959 18.60349,-0.25966 z"
         id="path11" />
      <path
         style="fill:#803300"
         d="m 355.97506,465 c 0.0178,-0.825 0.84139,-2.85 1.83013,-4.5 0.98874,-1.65 3.50111,-7.05 5.58304,-12 2.08194,-4.95 4.70207,-10.8 5.82253,-13 1.12045,-2.2 2.62235,-5.64758 3.33756,-7.6613 0.7152,-2.01371 3.52272,-6.73871 6.23892,-10.5 2.7162,-3.76128 5.6773,-8.4137 6.58022,-10.3387 0.90292,-1.925 3.31157,-4.625 5.35255,-6 2.04098,-1.375 7.10143,-5.91683 11.24543,-10.09295 9.05323,-9.12339 10.17405,-9.76844 18.23846,-10.49648 6.41059,-0.57875 9.97224,-1.73337 12.97187,-4.20525 0.92167,-0.75951 5.87167,-2.28634 11,-3.39296 5.12832,-1.10661 9.92302,-2.50231 10.65487,-3.10156 0.73185,-0.59925 6.80685,-1.43401 13.5,-1.85504 6.69315,-0.42102 14.41936,-1.20206 17.16936,-1.73566 2.75,-0.53359 6.92347,-1.28962 9.27438,-1.68007 2.35091,-0.39045 4.51497,-1.09919 4.80902,-1.57497 C 499.87745,362.38928 503.28451,362 507.15465,362 514.34998,362 518.08151,360.47712 522,355.94143 524.41754,353.1431 545.81504,338 547.35159,338 c 0.77194,0 1.90218,-0.60085 2.51165,-1.33522 0.60947,-0.73437 3.02707,-1.91766 5.37245,-2.62955 4.45791,-1.3531 8.58614,-3.02774 15.20214,-6.16684 4.93743,-2.34267 18.8649,-2.5109 29.0618,-0.35103 3.84979,0.81545 8.79979,1.48798 11,1.49451 2.2002,0.007 6.47537,0.67619 9.50037,1.48813 3.46822,0.93091 10.18739,1.48065 18.18873,1.48813 l 12.68872,0.0119 0.66001,-4.40124 c 0.81141,-5.41084 0.42515,-6.81143 -4.99132,-18.09876 -2.37536,-4.95 -6.88703,-15.48044 -10.02593,-23.40097 -3.13889,-7.92054 -9.83232,-22.77054 -14.87428,-33 C 616.60397,242.86956 608.45149,225.95 603.52932,215.5 598.60714,205.05 592.35939,192.9 589.64543,188.5 586.93147,184.1 581.76694,175.775 578.1687,170 567.26293,152.49674 538.00782,116.31274 522.32979,100.93597 500.57333,79.597581 495.8614,75.609162 480.1998,65.274976 450.62448,45.759933 419.80189,36.077452 375.61136,32.419998 353.1233,30.558761 348.1646,30.901016 322.77371,36.066908 305.33456,39.614981 294.91605,42.85495 278,49.990721 c -18.00633,7.595687 -24.54167,11.051291 -37.22354,19.682187 -20.23097,13.768581 -35.95232,27.989897 -54.43289,49.239232 -14.99585,17.24253 -38.82466,48.09333 -37.14161,48.08668 0.16392,-6.5e-4 3.67304,-0.68946 7.79804,-1.5307 13.57981,-2.76943 20.30882,-3.40229 36.52749,-3.4354 12.27307,-0.0251 16.50267,0.3001 18.056,1.3881 1.11567,0.78144 4.86871,1.93584 8.34009,2.56532 6.99928,1.26921 24.01359,8.89817 24.90975,11.16915 0.18334,0.46459 0.8924,0.84471 1.57569,0.84471 0.68329,0 2.28697,1.11194 3.56372,2.47098 1.27675,1.35904 3.71769,2.94308 5.42431,3.52009 4.72531,1.59764 12.09205,9.70917 14.86523,16.36816 2.6386,6.3358 4.9006,9.58587 11.48772,16.50566 2.54513,2.67366 4.25,5.41399 4.25,6.83125 0,1.30165 0.675,2.62565 1.5,2.94223 0.825,0.31659 1.5,1.13272 1.5,1.81364 0,0.68092 2.925,4.56185 6.5,8.62429 3.575,4.06244 6.5,7.96158 6.5,8.66476 0,0.70318 0.9,2.04912 2,2.99097 1.1,0.94185 2,2.33048 2,3.08584 0,2.1099 3.95451,7.18213 5.59948,7.18213 0.80481,0 1.76478,0.7875 2.13328,1.75 0.36849,0.9625 1.52396,2.44276 2.56772,3.28946 1.23568,1.0024 2.06508,3.27002 2.37743,6.5 0.26383,2.7283 1.50459,6.98554 2.75723,9.46054 1.25265,2.475 3.06704,7.425 4.03199,11 0.96495,3.575 3.7296,10.2557 6.14366,14.846 2.41407,4.5903 4.38921,9.46355 4.38921,10.82945 0,1.36589 1.10911,5.26019 2.46469,8.65399 1.35558,3.39381 3.15397,9.4548 3.99641,13.46887 0.84245,4.01407 2.88476,11.30427 4.53848,16.20046 1.65372,4.89618 3.49171,12.41194 4.08441,16.70169 0.5927,4.28975 2.19172,12.21995 3.55337,17.62268 2.33097,9.24876 2.44881,11.00293 2.01535,30 -0.25322,11.09727 -0.93339,23.10186 -1.5115,26.67686 -0.5781,3.575 -1.51772,10.74618 -2.08802,15.93596 -0.57031,5.18977 -1.41687,9.68977 -1.88125,10 -1.06276,0.70995 -3.19062,6.83151 -3.11564,8.96326 0.0676,1.92231 7.87227,-13.74781 7.91876,-15.89922 z"
         id="path9" />
      <path
         style="fill:#803300"
         d="m 280.64222,517.17754 c 7.27858,-1.05239 14.26444,-2.71623 17.85778,-4.25323 1.1,-0.47051 4.8412,-1.56572 8.31378,-2.4338 3.47258,-0.86807 9.50946,-3.13356 13.41529,-5.03442 3.90583,-1.90085 7.76534,-3.45609 8.57669,-3.45609 2.76883,0 10.37403,-4.44073 13.28692,-7.75834 2.62882,-2.99406 2.90942,-4.0024 2.92928,-10.52646 0.0152,-4.9963 0.6258,-8.54581 1.98547,-11.54194 4.46329,-9.83523 8.26692,-67.54957 5.09822,-77.35791 -0.58908,-1.82344 -2.5775,-11.19035 -4.41872,-20.81535 -1.84121,-9.625 -4.05554,-19.075 -4.92072,-21 -0.86519,-1.925 -2.34732,-7.1 -3.29363,-11.5 -0.94631,-4.4 -2.78976,-10.77675 -4.09657,-14.17056 C 334.0692,323.93564 333,320.21703 333,319.06588 c 0,-1.15116 -0.38874,-2.87441 -0.86386,-3.82945 -0.47512,-0.95504 -2.08033,-4.31604 -3.56712,-7.46889 -1.48679,-3.15286 -3.08843,-5.97052 -3.5592,-6.26147 -0.47077,-0.29095 -1.15936,-1.98634 -1.53019,-3.76754 -1.16053,-5.57421 -4.11929,-14.07419 -6.34351,-18.22372 C 315.96126,277.32295 315,274.49755 315,273.23614 c 0,-1.26141 -2.25691,-5.20158 -5.01535,-8.75592 -5.074,-6.53801 -7.56888,-10.37025 -10.53015,-16.17477 -0.89637,-1.757 -3.87939,-5.76533 -6.62895,-8.90741 -5.56116,-6.35504 -9.82173,-12.69343 -9.83285,-14.62817 -0.004,-0.69843 -2.52769,-3.96987 -5.60818,-7.26987 -3.50914,-3.7592 -7.07919,-9.08109 -9.55922,-14.25 C 265.59154,198.59436 263.24243,195 262.43349,195 261.64507,195 261,194.53588 261,193.96862 c 0,-0.56727 -0.7875,-1.31731 -1.75,-1.66676 -0.9625,-0.34945 -3.36695,-2.02283 -5.34322,-3.71861 -11.90799,-10.21793 -25.62652,-17.75472 -35.55398,-19.5329 -3.38097,-0.60559 -7.43097,-1.73735 -9,-2.51502 -3.78131,-1.87415 -37.66119,-0.41992 -51.35589,2.20435 -21.51671,4.12317 -36.77723,16.84849 -51.66593,43.08276 -3.02076,5.32266 -6.115,11.15673 -6.876087,12.96461 -1.571599,3.73314 -1.462473,3.7039 5.841677,-1.56544 7.84768,-5.66144 15.116,-7.4723 30.52848,-7.60601 l 13.32505,-0.1156 2.92495,3.26578 c 1.60872,1.79617 2.92495,3.93367 2.92495,4.75 0,0.81632 0.41968,1.48422 0.93261,1.48422 0.51294,0 1.21477,0.88899 1.55962,1.97552 0.34486,1.08654 3.30018,3.6255 6.56739,5.64214 3.58051,2.21002 5.94038,4.35926 5.94038,5.41017 0,0.95896 0.67223,3.03249 1.49384,4.60786 0.82161,1.57537 1.50339,3.98931 1.51506,5.36431 0.0218,2.57205 1.85176,8.47474 3.35732,10.82945 0.46751,0.7312 1.26731,7.0312 1.77734,14 2.39409,32.71183 4.00161,45.57577 5.95083,47.62055 0.49809,0.5225 0.90561,7.28767 0.90561,15.03372 v 14.08372 L 181.5,355 c -1.925,2.98791 -3.5,5.94049 -3.5,6.56129 0,0.6208 -0.9,1.94322 -2,2.93871 -1.1,0.99549 -2,2.83867 -2,4.09597 0,1.2573 -0.43796,2.55667 -0.97324,2.88749 -0.53528,0.33082 -1.69773,2.26988 -2.58322,4.30902 -0.88549,2.03914 -2.02903,4.38252 -2.5412,5.20752 -0.51218,0.825 -1.40933,2.71048 -1.99368,4.18996 -1.79699,4.54971 -11.6783,11.06938 -20.40866,13.4656 -2.75,0.75479 -9.97403,1.65517 -16.0534,2.00083 -11.9973,0.68215 -17.69923,-0.3914 -19.44958,-3.66196 -0.54319,-1.01496 -3.217,-3.28998 -5.94179,-5.05558 -3.12094,-2.0223 -5.344576,-4.33011 -6.00921,-6.23668 -0.580271,-1.66457 -1.310246,-2.77128 -1.622167,-2.45936 -0.864719,0.86472 3.273011,27.39114 5.421607,34.75719 4.04861,13.87986 11.41139,32.45922 15.38753,38.82912 5.12417,8.20908 15.16705,20.73167 18.2425,22.74678 1.4444,0.9464 2.50511,2.90132 2.89409,5.33386 0.5402,3.37825 1.43458,4.39545 7.43914,8.46074 3.75381,2.54145 9.64163,5.76528 13.08405,7.16406 3.44241,1.39877 7.01229,2.96389 7.93308,3.47803 0.92078,0.51414 3.92415,1.58137 6.67415,2.37161 2.75,0.79024 7.7,2.33543 11,3.43375 10.14319,3.3759 16.66381,5.0137 25,6.27934 4.4,0.66803 8.9,1.57996 10,2.02651 2.72289,1.10538 52.25434,0.33882 61.14222,-0.94626 z"
         id="path6" />
    </g>
  </g>
</svg>
